<svg xmlns="http://www.w3.org/2000/svg" viewBox="0 0 422.29 322.13"><defs><clipPath id="c"><path d="M164.97,82.45L7.02,227.48c-6.36,5.84-8.65,14.89-5.84,23.05l19.62,56.95c4.68,13.59,21.05,18.96,32.87,10.77l133.3-92.3c14.54-10.07,33.81-10.07,48.35,0l133.3,92.3c11.82,8.18,28.19,2.82,32.87-10.77l19.62-56.95c2.81-8.16.52-17.21-5.84-23.05l-157.95-145.03c-26.11-23.97-66.23-23.97-92.34,0Z"/></clipPath><linearGradient id="g" x1="0" y1="0" x2="0" y2="257.66" gradientUnits="userSpaceOnUse"><stop offset=".36" stop-color="#0b7a5a"/><stop offset="1" stop-color="#34d399"/></linearGradient></defs><path d="M164.97,82.45L7.02,227.48c-6.36,5.84-8.65,14.89-5.84,23.05l19.62,56.95c4.68,13.59,21.05,18.96,32.87,10.77l133.3-92.3c14.54-10.07,33.81-10.07,48.35,0l133.3,92.3c11.82,8.18,28.19,2.82,32.87-10.77l19.62-56.95c2.81-8.16.52-17.21-5.84-23.05l-157.95-145.03c-26.11-23.97-66.23-23.97-92.34,0Z" fill="#0b7a5a"/><path d="M164.97,17.98L7.02,163.02c-6.36,5.84-8.65,14.89-5.84,23.05l19.62,56.95c4.68,13.59,21.05,18.96,32.87,10.77l133.3-92.3c14.54-10.07,33.81-10.07,48.35,0l133.3,92.3c11.82,8.18,28.19,2.82,32.87-10.77l19.62-56.95c2.81-8.16.52-17.21-5.84-23.05L257.31,17.98c-26.11-23.97-66.23-23.97-92.34,0Z" fill="#34d399"/><path d="M164.97,17.98L7.02,163.02c-6.36,5.84-8.65,14.89-5.84,23.05l19.62,56.95c4.68,13.59,21.05,18.96,32.87,10.77l133.3-92.3c14.54-10.07,33.81-10.07,48.35,0l133.3,92.3c11.82,8.18,28.19,2.82,32.87-10.77l19.62-56.95c2.81-8.16.52-17.21-5.84-23.05L257.31,17.98c-26.11-23.97-66.23-23.97-92.34,0Z" fill="url(#g)" clip-path="url(#c)"/></svg>
